<svg width="100%" viewBox="0 0 680 170" role="img" xmlns="http://www.w3.org/2000/svg">
  <style>
    .text-main { fill: #1e4020; }
    @media (prefers-color-scheme: dark) {
      .text-main { fill: #f8fafc; }
    }
  </style>
  <title>FarmLease Icon and Wordmark</title>
  <desc>FarmLease icon with wordmark</desc>
  <g transform="translate(148, 10) scale(0.88)">
    <rect x="0" y="0" width="160" height="160" rx="36" fill="#2d5a1b" />
    <path d="M30 122 Q80 108 130 122" fill="none" stroke="#a8e063" stroke-width="5" stroke-linecap="round" />
    <path d="M36 102 Q80 88 124 102" fill="none" stroke="#7dbf3e" stroke-width="5" stroke-linecap="round" />
    <path d="M42 82 Q80 68 118 82" fill="none" stroke="#5a9e2a" stroke-width="5" stroke-linecap="round" />
    <line x1="80" y1="130" x2="80" y2="30" stroke="#c8f090" stroke-width="3.5" stroke-linecap="round" />
    <path d="M80 70 Q48 50 42 24 Q66 30 80 58" fill="#7dbf3e" />
    <path d="M80 56 Q112 36 118 10 Q94 16 80 44" fill="#a8e063" />
    <path d="M72 34 L80 16 L88 34" fill="none" stroke="#c8f090" stroke-width="3" stroke-linecap="round" stroke-linejoin="round" />
    <line x1="46" y1="138" x2="74" y2="143" stroke="#7dbf3e" stroke-width="1.5" opacity="0.6" />
    <line x1="86" y1="143" x2="114" y2="138" stroke="#7dbf3e" stroke-width="1.5" opacity="0.6" />
    <circle cx="44" cy="136" r="6" fill="#a8e063" />
    <circle cx="80" cy="144" r="6" fill="#c8f090" />
    <circle cx="116" cy="136" r="6" fill="#7dbf3e" />
  </g>
  <text x="302" y="98" font-family="sans-serif" font-size="58" font-weight="500" letter-spacing="-1.5px" class="text-main">farm<tspan fill="#4fa822">lease</tspan></text>
</svg>