<svg width="100%" viewBox="0 0 160 160" role="img" xmlns="http://www.w3.org/2000/svg">
  <title>FarmLease Icon</title>
  <desc>FarmLease standalone icon</desc>
  <g>
    <rect x="0" y="0" width="160" height="160" rx="36" fill="#059669" />
    <path d="M30 122 Q80 108 130 122" fill="none" stroke="#6ee7b7" stroke-width="5" stroke-linecap="round" />
    <path d="M36 102 Q80 88 124 102" fill="none" stroke="#34d399" stroke-width="5" stroke-linecap="round" />
    <path d="M42 82 Q80 68 118 82" fill="none" stroke="#10b981" stroke-width="5" stroke-linecap="round" />
    <line x1="80" y1="130" x2="80" y2="30" stroke="#a7f3d0" stroke-width="3.5" stroke-linecap="round" />
    <path d="M80 70 Q48 50 42 24 Q66 30 80 58" fill="#34d399" />
    <path d="M80 56 Q112 36 118 10 Q94 16 80 44" fill="#6ee7b7" />
    <path d="M72 34 L80 16 L88 34" fill="none" stroke="#a7f3d0" stroke-width="3" stroke-linecap="round" stroke-linejoin="round" />
    <line x1="46" y1="138" x2="74" y2="143" stroke="#34d399" stroke-width="1.5" opacity="0.6" />
    <line x1="86" y1="143" x2="114" y2="138" stroke="#34d399" stroke-width="1.5" opacity="0.6" />
    <circle cx="44" cy="136" r="6" fill="#6ee7b7" />
    <circle cx="80" cy="144" r="6" fill="#a7f3d0" />
    <circle cx="116" cy="136" r="6" fill="#34d399" />
  </g>
</svg>
